<svg width="24" height="24" viewBox="0 0 24 24" fill="none" xmlns="http://www.w3.org/2000/svg">
<g id="house-fill-svgrepo-com 1">
<path id="Vector" d="M0.267578 11.9246C0.267578 12.4067 0.649264 12.698 1.12138 12.698C1.41268 12.698 1.64368 12.5574 1.84459 12.3565L11.6482 3.42682C11.7586 3.31633 11.8792 3.27613 12.0097 3.27613C12.1303 3.27613 12.2408 3.31633 12.3613 3.42682L22.1549 12.3565C22.3658 12.5574 22.5968 12.698 22.878 12.698C23.3501 12.698 23.7319 12.4067 23.7319 11.9246C23.7319 11.6232 23.6215 11.4324 23.4306 11.2617L19.955 8.09756V2.1612C19.955 1.71922 19.6738 1.43799 19.2319 1.43799H17.916C17.4841 1.43799 17.1827 1.71922 17.1827 2.1612V5.57636L13.2051 1.94023C12.8535 1.60873 12.4216 1.44802 11.9997 1.44802C11.5778 1.44802 11.156 1.60873 10.7944 1.94023L0.568907 11.2617C0.388135 11.4324 0.267578 11.6232 0.267578 11.9246ZM3.14034 20.352C3.14034 21.7482 3.98411 22.5618 5.40041 22.5618H9.46845V15.4201C9.46845 14.958 9.77985 14.6567 10.2419 14.6567H13.7877C14.2497 14.6567 14.5511 14.958 14.5511 15.4201V22.5618H18.609C20.0254 22.5618 20.8591 21.7482 20.8591 20.352V12.9993L12.3312 5.31519C12.2207 5.21473 12.1002 5.16455 11.9797 5.16455C11.8691 5.16455 11.7586 5.21473 11.6381 5.32526L3.14034 13.0496V20.352Z" fill="#A0A0A0"/>
</g>
</svg>
