<svg width="24" height="24" viewBox="0 0 24 24" fill="none" xmlns="http://www.w3.org/2000/svg">
<g id="documents-record-document-report-svgrepo-com 1">
<path id="Vector" d="M4.80019 5.75605H10.1439V12.1498H4.80019V5.75605ZM12.2627 5.75605H16.5377V6.82481H12.2627V5.75605ZM12.2627 11.0998H16.5377V12.1686H12.2627V11.0998ZM12.2627 8.41856H16.5377V9.4873H12.2627V8.41856ZM4.80019 13.7998H16.5189V14.8686H4.80019V13.7998ZM4.80019 19.0123H16.5189V20.0811H4.80019V19.0123ZM4.80019 16.3311H16.5189V17.3998H4.80019V16.3311ZM4.5002 0.299805V2.34355H2.1377V23.7561H19.5002V21.7123H21.8627V0.299805H4.5002ZM18.4314 22.7061H3.1877V3.39355H4.5002H5.56895H18.4314V20.6248V21.6936V22.7061ZM20.8127 20.6436H19.5002V2.32481H5.56895V1.36856H20.8127V20.6436Z" fill="#A0A0A0"/>
</g>
</svg>
