<svg width="24" height="24" viewBox="0 0 24 24" fill="none" xmlns="http://www.w3.org/2000/svg">
<g id="government-building-building-museum-power-svgrepo-com 1" clip-path="url(#clip0_0_229)">
<path id="Vector" d="M23.1564 22.6126V13.6501H15.7502V12.1876H15.2252V10.8188H14.7939V8.79385H15.2814V7.81885H14.7939V7.3876C14.7939 5.83135 13.7439 4.51885 12.3752 4.2751V2.71885H12.1314V0.787598H11.6252V2.7376H11.3814V4.29385C9.99395 4.5376 8.9627 5.8501 8.9627 7.40635V7.8376H8.47519V8.8126H8.9627V10.8376H8.53144V12.1876H8.00644V13.6501H0.825195V22.6313H-0.0185547V24.0938H24.0002V22.6313L23.1564 22.6126ZM14.0439 8.79385V10.8188H13.5564V8.79385H14.0439ZM13.0877 8.79385V10.8188H12.6002V8.79385H13.0877ZM12.1127 8.79385V10.8188H11.6252V8.79385H12.1127ZM11.1377 8.79385V10.8188H10.6502V8.79385H11.1377ZM9.67519 8.79385H10.1627V10.8188H9.67519V8.79385ZM3.9752 22.6126H2.75645V18.0188H3.9752V22.6126ZM3.9752 17.0438H2.75645V15.0938H3.9752V17.0438ZM6.16895 22.6126H4.9502V18.0188H6.16895V22.6126ZM6.16895 17.0438H4.9502V15.0938H6.16895V17.0438ZM8.10019 22.6126H6.88144V18.0188H8.10019V22.6126ZM8.10019 17.0438H6.88144V15.0938H8.10019V17.0438ZM10.2939 22.6126H9.0752V18.0188H10.2939V22.6126ZM10.2939 17.0438H9.0752V15.0938H10.2939V17.0438ZM12.4689 22.6126H11.2502V18.0188H12.4689V22.6126ZM12.4689 17.0438H11.2502V15.0938H12.4689V17.0438ZM14.6627 22.6126H13.4439V18.0188H14.6627V22.6126ZM14.6627 17.0438H13.4439V15.0938H14.6627V17.0438ZM16.8377 22.6126H15.6189V18.0188H16.8377V22.6126ZM16.8377 17.0438H15.6189V15.0938H16.8377V17.0438ZM19.0314 22.6126H17.8127V18.0188H19.0314V22.6126ZM19.0314 17.0438H17.8127V15.0938H19.0314V17.0438ZM21.2064 22.6126H19.9877V18.0188H21.2064V22.6126ZM21.2064 17.0438H19.9877V15.0938H21.2064V17.0438Z" fill="#A0A0A0"/>
</g>
<defs>
<clipPath id="clip0_0_229">
<rect width="24" height="24" fill="white"/>
</clipPath>
</defs>
</svg>
