<svg width="28" height="28" viewBox="0 0 28 28" fill="none" xmlns="http://www.w3.org/2000/svg">
<g id="money-bag-svgrepo-com 1" clip-path="url(#clip0_0_215)">
<path id="Vector" d="M4.79923 23.5224C5.22014 23.5224 5.56136 23.2897 5.56136 23.0027C5.56136 22.7156 5.22014 22.4829 4.79923 22.4829C4.37832 22.4829 4.03711 22.7156 4.03711 23.0027C4.03711 23.2897 4.37832 23.5224 4.79923 23.5224Z" fill="#A0A0A0"/>
<path id="Vector_2" d="M27.125 20.4177L26.8389 20.2497C26.817 20.237 24.6308 18.9398 24.0874 17.3657L23.9662 17.017L23.7423 17.3097C23.7353 17.3189 23.4246 17.703 22.5553 18.1536C21.9118 14.4904 19.7225 10.1172 16.8455 8.25256C17.668 8.31906 18.4931 8.25081 19.2894 7.96119C19.7689 7.78706 19.5619 7.00569 19.0781 7.18244C18.4253 7.42 17.7712 7.48475 17.1185 7.4515C18.7211 5.98281 19.9793 3.73188 19.9793 2.086C19.9793 1.6905 19.9793 0.954187 19.3931 0.954187C19.1577 0.954187 18.9674 1.10119 18.7044 1.30419C18.3011 1.61525 17.6921 2.086 16.7974 2.086C16.4566 2.086 15.8327 1.72638 15.3313 1.43762C14.7254 1.08894 14.3382 0.875 14.0127 0.875C13.4737 0.875 12.6814 1.31075 11.9823 1.69531C11.6979 1.8515 11.3089 2.06588 11.2284 2.08644C10.2152 2.08644 9.62675 1.61919 9.2365 1.30987C9.009 1.12875 8.84406 0.9975 8.624 0.9975C8.04738 0.9975 8.04737 1.68919 8.04737 2.49025C8.04737 4.03638 9.22513 6.07731 10.7673 7.44887C9.79562 7.51844 8.8375 7.812 8.16419 8.46431C7.79231 8.82394 8.35581 9.39444 8.72637 9.03569C9.28594 8.49319 10.0196 8.26087 10.8045 8.21581C10.8268 8.29587 10.8539 8.37463 10.8872 8.45206C7.59894 10.815 5.26312 16.4259 5.26312 20.2138C5.26312 20.5874 5.292 20.9256 5.33663 21.2441C4.48875 20.8674 4.17944 20.5371 4.17331 20.5297L3.94756 20.2694L3.83644 20.5975C3.34512 22.043 1.20925 23.2969 1.18781 23.3096L0.875 23.4911L1.19306 23.6631C1.30463 23.7234 1.41531 23.7764 1.52688 23.8337L1.32563 23.9733L1.43194 25.3032L9.76762 27.125L12.9281 25.1033C13.2471 25.1051 13.5699 25.1059 13.8985 25.1059L17.5928 27.125L25.9442 24.5V23.0961L25.7233 22.9635C25.8335 22.8935 25.9438 22.8222 26.0536 22.7487L26.3463 22.5531L26.2819 22.5216L26.6542 22.4197L26.7173 20.9602L26.502 20.8075C26.6166 20.7388 26.7308 20.6688 26.8454 20.5962L27.125 20.4177ZM8.84319 2.49025C8.84319 2.296 8.84581 2.14462 8.84975 2.02694C8.91669 2.07944 8.99456 2.13675 9.07769 2.19581C9.33275 2.80656 9.81531 3.68594 10.6334 4.23981C11.6274 4.91356 11.4953 4.13919 12.0256 3.43219C12.5558 2.72562 12.9146 2.3555 13.8027 4.17287C14.1899 4.96519 14.8352 2.751 15.4486 2.42769C15.6109 2.51606 15.7728 2.59831 15.9316 2.66831C17.0314 4.45681 17.5411 3.899 18.5181 2.41237C18.7867 2.25487 19.0072 2.086 19.1826 1.95081C19.1835 1.9915 19.1844 2.03656 19.1844 2.08687C19.1844 3.49125 18.0368 5.5055 16.6316 6.81931C16.5652 6.6507 16.4702 6.49484 16.3507 6.35863C15.7833 5.71594 14.8964 6.42862 14.476 6.89631C13.7301 6.65656 12.5147 5.99638 11.7228 6.37437C11.5256 6.46586 11.3445 6.58863 11.1864 6.73794C9.89144 5.55756 8.84319 3.8535 8.84319 2.49025ZM15.9324 7.29138C15.7363 7.24978 15.5412 7.2031 15.3475 7.15138C15.5916 6.94094 15.8156 6.86744 15.9097 7.18025C15.9198 7.21438 15.9259 7.25331 15.9324 7.29138ZM12.6074 7.56306C12.4626 7.5355 12.3139 7.51056 12.1607 7.49087C12.0446 7.4181 11.931 7.34149 11.8199 7.26119C12.2198 6.993 12.9093 7.13562 13.5682 7.35919C13.2431 7.392 12.9224 7.46288 12.6074 7.56306ZM12.8061 8.71806C12.5611 8.77931 12.2942 8.75481 12.0636 8.66294C12.1572 8.6135 12.2517 8.57062 12.3462 8.52731C12.4994 8.60125 12.6525 8.66294 12.8061 8.71806ZM4.71362 24.6658C3.67014 24.3636 2.65762 23.9633 1.68963 23.4701C2.28331 23.0799 3.57656 22.1362 4.10244 21.0022C4.46294 21.2852 5.29506 21.8015 6.91556 22.1979C6.888 22.2425 6.85431 22.2902 6.82194 22.337C5.43856 21.9748 4.65194 21.5167 4.63925 21.5088L4.4485 21.3951L4.35706 21.5994C4.23675 21.8671 3.95456 21.9074 3.7975 21.9074C3.75375 21.9074 3.72444 21.9043 3.7205 21.9039L3.56431 21.8811L3.50744 22.0308C3.39106 22.3361 2.91331 22.7351 2.73831 22.8633L2.44606 23.0777L2.78031 23.2146C2.90456 23.2654 2.93825 23.3122 2.94 23.3244C2.94437 23.3546 2.89144 23.4342 2.835 23.4802L2.58037 23.6854L2.87656 23.8223C3.48337 24.1023 4.17069 24.3342 4.858 24.5254C4.80331 24.5792 4.75606 24.6251 4.71362 24.6658ZM8.24162 23.0357C8.85325 23.1214 9.53094 23.1757 10.2712 23.1757H10.2716C10.4256 23.1757 10.5818 23.1731 10.7411 23.1683C10.7517 23.2013 10.7668 23.2326 10.7861 23.2614C10.8251 23.3205 10.8776 23.3695 10.9441 23.4076L9.82756 24.3617C9.80628 24.3608 9.78499 24.3604 9.76369 24.3604C9.26625 24.3604 8.89525 24.5433 8.71719 24.8688C8.04255 24.7828 7.37103 24.6738 6.70381 24.542C7.24016 24.0647 7.75335 23.562 8.24162 23.0357ZM3.27644 23.5594C3.32019 23.4767 3.34862 23.3765 3.33331 23.2671C3.31877 23.1685 3.27146 23.0775 3.199 23.009C3.39544 22.8406 3.66625 22.5807 3.815 22.3116C4.15319 22.3068 4.43231 22.1786 4.60819 21.952C4.90438 22.1069 5.57156 22.4197 6.55725 22.6909C6.15431 23.1963 5.61137 23.7694 5.18919 24.1955C4.53119 24.0214 3.86838 23.8114 3.27644 23.5594ZM9.51125 25.4008L9.42156 25.4013C9.04488 25.4013 7.79669 25.3706 6.14775 25.0272C6.2055 24.9782 6.26544 24.9279 6.321 24.8797C7.65887 25.1593 8.73775 25.2792 8.81869 25.2884L8.97881 25.3054L9.02825 25.1501C9.13631 24.815 9.53487 24.7656 9.76325 24.7656C9.82581 24.7656 9.86738 24.7695 9.87219 24.7699L9.95706 24.7791L11.8965 23.1219L11.3781 23.1048C11.2048 23.0987 11.1318 23.0597 11.1138 23.0331L11.2236 22.7456L10.92 22.7583C10.6986 22.7679 10.4825 22.7727 10.2712 22.7727H10.2708C9.66 22.7727 9.09344 22.7325 8.56975 22.6691L8.69137 22.5256C9.74837 22.6669 11.0141 22.7539 12.5422 22.743C12.1774 23.2549 11.2674 24.3429 9.51125 25.4008ZM13.8967 23.4999V24.2983C13.6478 24.2983 13.4054 24.2974 13.1683 24.2957L13.097 23.3971L12.5046 23.4452C12.9036 22.9736 13.0738 22.659 13.0891 22.6306L13.2497 22.3269L12.9106 22.3331C9.66525 22.3926 7.54862 22.0058 6.2125 21.5762C6.11494 21.1816 6.0585 20.7353 6.0585 20.2142C6.0585 16.6604 8.32956 11.2888 11.3448 9.11181C11.879 9.6285 12.6892 9.85469 13.4592 9.352C13.6281 9.24175 13.7751 9.09737 13.9129 8.94381C13.9458 8.94469 13.9794 8.95212 14.0127 8.95212C14.1229 8.95212 14.2349 8.94294 14.3465 8.92894C14.4878 8.98538 14.6261 9.04225 14.7542 9.09869C15.3681 9.36906 15.8922 9.20106 16.2501 8.82831C19.012 10.4996 21.2249 14.9205 21.8072 18.494C20.5446 18.9989 18.5417 19.4915 15.4678 19.5781C16.0742 19.2316 16.5292 18.6489 16.3656 17.8832C16.1936 17.0739 15.5173 16.8464 14.8168 16.8092C14.8151 16.429 14.8151 16.0497 14.8177 15.6695C15.0325 15.7644 15.2386 15.8738 15.4258 15.9906C15.7566 16.1984 16.0558 15.6599 15.7273 15.4521C15.4424 15.273 15.1383 15.1264 14.8207 15.015C14.8251 14.5749 14.8273 14.1356 14.8273 13.6964C14.8277 13.2939 14.2297 13.2939 14.2297 13.6964C14.2297 14.0827 14.2271 14.4686 14.2236 14.854C13.9052 14.7985 13.5802 14.7931 13.2602 14.8378C13.2082 14.5482 13.1451 14.2607 13.0712 13.9759C12.9723 13.5883 12.3948 13.7524 12.495 14.1413C12.5685 14.4209 12.6284 14.6991 12.6779 14.9813C12.6525 14.9909 12.6249 14.9957 12.6 15.0071C11.7898 15.3278 11.2954 16.1455 11.8882 16.9081C12.1643 17.2633 12.5252 17.4068 12.9202 17.4545C12.9417 17.9808 12.9552 18.5076 12.9706 19.0334C12.7059 18.8615 12.4648 18.641 12.2465 18.4078C11.9761 18.1226 11.5539 18.5631 11.8239 18.8479C12.1909 19.2386 12.5764 19.5339 12.9942 19.7229C13.013 20.1723 13.0397 20.6229 13.0834 21.07C13.1219 21.4668 13.7204 21.469 13.6815 21.07C13.6446 20.6833 13.6173 20.2957 13.5997 19.9076C13.8272 19.9469 14.0661 19.957 14.3198 19.9329C14.3482 20.3468 14.3815 20.7607 14.4288 21.1746C14.4559 21.4117 14.6825 21.5049 14.8496 21.4567L14.8124 22.316C14.5491 22.3396 14.2804 22.3615 14.0004 22.3799L13.6671 22.4017L13.8447 22.6888C13.8626 22.7176 14.0643 23.0366 14.5145 23.5007H13.8967V23.4999ZM24.7852 20.6203C24.2353 20.8788 23.5397 21.1159 22.8309 21.3229C22.3952 20.8727 21.8378 20.272 21.4218 19.7391C22.3488 19.4583 22.8677 19.1686 23.1017 19.0124C23.2868 19.1756 23.5318 19.2605 23.8219 19.2601C23.9181 19.2601 24.0034 19.2509 24.0691 19.2404C24.2791 19.5125 24.6177 19.8266 24.8294 20.0143C24.7292 20.1171 24.6807 20.2309 24.6846 20.3538C24.6881 20.4588 24.7301 20.5481 24.7852 20.6203ZM21.6549 22.0579C21.7442 22.1366 21.8365 22.2171 21.9306 22.2985C20.1569 22.7688 18.837 22.82 18.5496 22.8248C16.7129 21.7044 15.7609 20.5187 15.3939 19.985C16.9308 19.9465 18.2013 19.8074 19.2609 19.6157C19.304 19.6687 19.3476 19.7212 19.3918 19.7733C18.5401 19.9059 17.6817 19.991 16.8206 20.0283L16.4675 20.0432L16.6617 20.3403C16.6613 20.3407 16.6219 20.4142 16.3612 20.4649L15.9373 20.5476L18.0215 22.2351L18.1186 22.2088C18.1208 22.2084 18.3046 22.1589 18.5268 22.1589C18.8475 22.1589 19.0667 22.2565 19.1769 22.4473L19.2469 22.568L19.383 22.5439C20.1451 22.405 20.9027 22.2429 21.6549 22.0579ZM15.4875 20.7721L14.9896 20.7449C14.9664 20.4964 14.9433 20.2479 14.9258 19.9994C15.0133 20.1447 15.1926 20.4177 15.4875 20.7721ZM14.8715 19.1704C14.8428 18.5815 14.8254 17.992 14.8194 17.4024C14.8912 17.4051 14.9621 17.4116 15.0294 17.4212C15.8029 17.5385 16.0051 18.3986 15.4013 18.8825C15.2438 19.0072 15.0623 19.0986 14.8715 19.1704ZM19.4386 22.1244C19.2426 21.8824 18.9306 21.7556 18.5273 21.7556C18.3588 21.7556 18.2105 21.7783 18.1169 21.7967L16.8066 20.7349C16.9155 20.6723 16.989 20.5931 17.0292 20.496C17.0392 20.4718 17.0468 20.4468 17.052 20.4212C18.0906 20.3643 18.9656 20.2606 19.7054 20.1338C20.0642 20.5341 20.5914 21.0862 21.2905 21.728C20.4317 21.9323 19.7155 22.0723 19.4386 22.1244ZM14.2209 17.4182C14.2293 18.0521 14.245 18.6878 14.2787 19.3213C14.2222 19.3301 14.1667 19.341 14.1111 19.3467C13.923 19.3681 13.7445 19.3524 13.5747 19.3095C13.5533 18.697 13.5393 18.0832 13.5161 17.4702C13.7515 17.4593 13.9899 17.4361 14.2209 17.4182ZM13.4859 16.8647C13.4586 16.384 13.4134 15.9045 13.3503 15.4271C13.6403 15.3873 13.9352 15.4023 14.2196 15.4713C14.2165 15.9186 14.2158 16.3659 14.2174 16.8131C14.0254 16.8236 13.8429 16.842 13.6824 16.8564C13.617 16.8615 13.5515 16.8643 13.4859 16.8647ZM12.8857 16.7882C12.8485 16.7781 12.8118 16.7703 12.7737 16.7576C12.5986 16.6982 12.4401 16.5982 12.3112 16.4658C11.9376 16.1171 12.4504 15.7749 12.7737 15.6126C12.8244 16.002 12.8594 16.3949 12.8857 16.7882ZM17.7144 25.3046C15.8152 24.3342 14.7963 23.2558 14.3916 22.7561C14.6825 22.7342 14.9577 22.708 15.2303 22.6804L18.3444 24.7017L25.1737 22.8257C21.6519 24.9484 18.1724 25.2717 17.7144 25.3046ZM23.3546 21.8527C23.2986 21.7967 23.2317 21.7302 23.1525 21.6501C23.9295 21.4147 24.6811 21.1418 25.2416 20.8416L25.5824 20.6583L25.2367 20.4824C25.1593 20.4426 25.0836 20.3696 25.0823 20.342C25.0832 20.3315 25.1138 20.2755 25.2464 20.1994L25.4993 20.0541L25.2744 19.8669C25.2674 19.8612 24.5661 19.2789 24.3197 18.9039L24.2384 18.7814L24.0988 18.8221C24.0975 18.8221 23.9776 18.8567 23.8219 18.8567C23.5813 18.8571 23.401 18.7784 23.2855 18.6235L23.1577 18.4542L22.9976 18.592C22.9893 18.599 22.4936 19.0054 21.1641 19.3896C21.1203 19.3265 21.0781 19.2623 21.0376 19.1971C22.6498 18.7084 23.4736 18.1169 23.8306 17.7931C24.4038 19.033 25.7683 20.0318 26.3607 20.4234C25.409 20.9992 24.402 21.4781 23.3546 21.8527Z" fill="#A0A0A0"/>
<path id="Vector_3" d="M19.4162 20.6137C18.98 20.4952 18.4878 20.5761 18.3155 20.7927C18.1444 21.0101 18.3605 21.284 18.7963 21.4034C19.2329 21.522 19.7247 21.4406 19.897 21.2236C20.0681 21.0062 19.8528 20.7332 19.4162 20.6137Z" fill="#A0A0A0"/>
</g>
<defs>
<clipPath id="clip0_0_215">
<rect width="28" height="28" fill="white"/>
</clipPath>
</defs>
</svg>
