<svg width="24" height="24" viewBox="0 0 24 24" fill="none" xmlns="http://www.w3.org/2000/svg">
<g id="warranty-term-svgrepo-com 1" clip-path="url(#clip0_0_236)">
<path id="Vector" d="M11.9998 0.922852C13.3844 0.922852 14.5059 2.44131 15.7336 2.96285C16.9613 3.48439 18.8813 3.19824 19.8136 4.18593C20.7459 5.17362 20.5105 6.98747 21.0367 8.26593C21.5629 9.54439 23.0767 10.6152 23.0767 11.9998C23.0767 13.3844 21.5582 14.5059 21.0367 15.7336C20.5152 16.9613 20.8013 18.8813 19.8136 19.8136C18.8259 20.7459 17.0121 20.5198 15.7336 21.0367C14.4552 21.5536 13.3844 23.0767 11.9998 23.0767C10.6152 23.0767 9.49362 21.5582 8.26593 21.0367C7.03824 20.5152 5.11824 20.8013 4.18593 19.8136C3.25362 18.8259 3.47977 17.0121 2.96285 15.7336C2.44593 14.4552 0.922852 13.3844 0.922852 11.9998C0.922852 10.6152 2.44131 9.49362 2.96285 8.26593C3.48439 7.03824 3.19824 5.11824 4.18593 4.18593C5.17362 3.25362 6.98747 3.47977 8.26593 2.96285C9.54439 2.44593 10.6152 0.922852 11.9998 0.922852ZM11.9998 4.42131C10.5009 4.42131 9.03568 4.86578 7.78941 5.69851C6.54314 6.53125 5.57178 7.71484 4.99819 9.09962C4.42459 10.4844 4.27451 12.0082 4.56693 13.4783C4.85935 14.9483 5.58113 16.2987 6.64099 17.3586C7.70086 18.4184 9.05121 19.1402 10.5213 19.4326C11.9914 19.725 13.5151 19.575 14.8999 19.0014C16.2847 18.4278 17.4683 17.4564 18.301 16.2101C19.1338 14.9639 19.5782 13.4987 19.5782 11.9998C19.5721 9.99171 18.7718 8.06764 17.3518 6.64772C15.9319 5.2278 14.0078 4.4274 11.9998 4.42131ZM15.5167 8.64439L16.2598 9.34593C16.3358 9.4462 16.3769 9.56857 16.3769 9.69439C16.3769 9.82021 16.3358 9.94258 16.2598 10.0429L11.5752 15.2629C11.4825 15.3679 11.368 15.4512 11.2396 15.5071C11.1112 15.5629 10.972 15.5898 10.8321 15.5859C10.6928 15.5852 10.5551 15.5561 10.4274 15.5006C10.2997 15.4451 10.1846 15.3642 10.089 15.2629L7.55516 12.7382C7.50875 12.6985 7.47069 12.6499 7.44321 12.5953C7.41573 12.5407 7.39937 12.4812 7.39508 12.4202C7.39079 12.3592 7.39864 12.298 7.4182 12.2401C7.43776 12.1822 7.46862 12.1287 7.50901 12.0829L7.55516 12.0321L8.30747 11.3352C8.39807 11.2377 8.52331 11.1797 8.65625 11.1737C8.78918 11.1676 8.91917 11.214 9.01824 11.3029L9.05054 11.3352L10.8459 13.1813L14.8105 8.65824C14.9034 8.56471 15.029 8.51098 15.1608 8.5084C15.2926 8.50581 15.4202 8.55458 15.5167 8.64439Z" fill="#A0A0A0"/>
</g>
<defs>
<clipPath id="clip0_0_236">
<rect width="24" height="24" fill="white"/>
</clipPath>
</defs>
</svg>
